<?xml version="1.0" standalone="no"?>
<!DOCTYPE svg PUBLIC "-//W3C//DTD SVG 20010904//EN"
 "http://www.w3.org/TR/2001/REC-SVG-20010904/DTD/svg10.dtd">
<svg version="1.0" xmlns="http://www.w3.org/2000/svg"
 width="1000.000000pt" height="1000.000000pt" viewBox="0 0 1000.000000 1000.000000"
 preserveAspectRatio="xMidYMid meet">
<metadata>
Created by potrace 1.14, written by Peter Selinger 2001-2017
</metadata>
<g transform="translate(0.000000,1000.000000) scale(0.100000,-0.100000)"
fill="#000000" stroke="none">
<path d="M6136 8865 c-127 -18 -250 -36 -275 -39 -26 -3 -55 -8 -66 -10 -11
-2 -49 -7 -85 -11 -36 -4 -67 -8 -70 -10 -3 -1 -32 -6 -65 -9 -33 -4 -87 -11
-120 -16 -33 -5 -82 -12 -110 -15 -27 -3 -61 -8 -75 -10 -14 -3 -43 -7 -65
-10 -22 -3 -51 -8 -65 -10 -14 -3 -47 -7 -75 -10 -27 -3 -61 -8 -75 -11 -14
-2 -45 -6 -70 -9 -25 -3 -56 -7 -70 -10 -14 -3 -45 -7 -70 -10 -68 -8 -122
-15 -150 -20 -14 -2 -45 -7 -70 -10 -25 -4 -56 -8 -70 -10 -14 -2 -45 -7 -70
-10 -25 -3 -56 -8 -70 -10 -22 -4 -209 -29 -300 -41 -19 -2 -64 -9 -100 -14
-36 -5 -81 -12 -100 -14 -19 -3 -152 -21 -295 -41 -143 -19 -278 -38 -300 -41
-22 -2 -51 -7 -65 -9 -14 -2 -41 -6 -60 -9 -37 -5 -298 -42 -365 -51 -22 -3
-58 -8 -80 -12 -22 -3 -51 -7 -65 -8 -14 -2 -63 -8 -110 -15 -47 -7 -94 -13
-105 -15 -35 -4 -119 -17 -145 -21 -14 -2 -47 -6 -75 -9 -27 -3 -75 -10 -105
-15 -30 -5 -80 -12 -110 -15 -30 -3 -62 -8 -70 -10 -8 -2 -40 -7 -70 -10 -30
-3 -66 -8 -80 -10 -14 -3 -43 -7 -65 -10 -22 -2 -51 -7 -65 -9 -14 -3 -47 -8
-75 -11 -27 -3 -61 -7 -75 -10 -14 -2 -47 -7 -75 -10 -27 -3 -77 -10 -110 -15
-33 -5 -78 -12 -100 -15 -56 -7 -126 -16 -154 -21 -44 -6 -106 -15 -131 -18
-179 -22 -367 -169 -473 -371 -85 -162 -122 -342 -121 -595 1 -432 111 -790
305 -995 l37 -39 -216 -66 c-119 -36 -224 -70 -232 -75 -24 -15 -49 -75 -43
-104 11 -64 88 -124 228 -178 39 -15 89 -40 113 -56 46 -31 107 -106 142 -176
28 -57 65 -181 75 -251 4 -30 9 -64 11 -75 7 -33 6 -326 -1 -385 -7 -57 -12
-90 -14 -101 0 -4 -17 -10 -37 -14 -20 -3 -118 -33 -218 -66 -283 -94 -456
-187 -456 -245 0 -31 40 -52 150 -78 62 -15 117 -29 121 -32 5 -3 -8 -23 -28
-45 -116 -125 -195 -305 -227 -514 -13 -88 -15 -416 -2 -495 3 -19 8 -57 11
-85 8 -68 64 -298 76 -310 5 -5 9 -16 9 -25 0 -30 102 -216 153 -280 69 -84
155 -153 231 -183 33 -14 169 -59 301 -102 248 -79 950 -306 1020 -330 22 -8
137 -45 255 -83 561 -182 1723 -560 1935 -630 169 -55 201 -61 250 -42 14 5
39 12 55 15 16 3 150 35 297 71 147 36 279 68 293 70 14 3 32 7 40 10 8 3 25
8 36 10 12 2 142 34 290 70 148 36 276 67 284 69 107 24 245 57 250 60 5 3
173 43 253 60 10 2 27 7 37 10 10 3 28 8 39 10 12 3 31 7 43 10 12 2 105 25
207 50 208 51 660 160 851 206 69 17 161 39 205 50 44 11 89 22 101 24 11 3
92 22 180 44 87 21 303 74 479 116 176 43 446 108 600 146 154 37 291 70 305
73 14 3 45 10 70 17 25 6 52 12 60 14 218 51 425 106 445 119 20 13 24 22 19
39 -24 82 -216 174 -609 292 -49 15 -93 30 -97 34 -14 12 -22 133 -21 306 1
265 38 429 130 568 43 64 134 147 162 147 7 0 45 14 84 31 174 77 231 156 176
245 -14 23 -32 37 -57 43 -94 25 -192 56 -192 61 0 3 15 15 34 28 37 25 129
120 162 167 90 128 176 361 200 540 3 28 8 59 10 70 17 85 23 375 11 495 -20
186 -100 402 -192 516 l-25 31 197 48 c109 27 203 50 208 51 48 9 97 27 110
40 67 68 -106 171 -495 293 -202 64 -207 66 -207 83 0 7 -4 45 -7 83 -8 81 -9
337 -2 380 3 17 10 62 16 100 35 226 145 390 300 450 204 79 280 155 243 246
-19 47 -29 54 -153 90 -52 15 -268 80 -480 144 -629 190 -1288 389 -1725 520
-225 68 -561 169 -745 224 -184 56 -341 101 -350 100 -8 0 -118 -16 -244 -34z
m-4931 -1214 c121 -39 281 -92 355 -116 133 -43 644 -209 1555 -506 253 -83
492 -161 530 -174 39 -13 246 -80 460 -150 215 -69 400 -130 411 -135 24 -9
23 21 9 -385 -2 -82 -7 -238 -11 -345 -3 -107 -7 -235 -9 -285 -2 -49 -4 -113
-4 -142 l-1 -52 -67 20 c-38 11 -99 28 -138 39 -38 10 -169 47 -290 81 -121
34 -267 75 -325 91 -58 16 -118 33 -135 38 -35 10 -148 41 -255 71 -41 11
-104 29 -140 39 -119 33 -185 52 -195 54 -5 2 -17 6 -25 9 -8 3 -100 29 -205
57 -104 29 -309 86 -455 127 -146 41 -359 101 -475 133 -115 32 -338 95 -495
139 -157 44 -307 85 -335 91 -94 21 -171 90 -235 211 -30 59 -85 219 -88 259
0 3 -3 30 -7 60 -3 30 -8 73 -10 95 -7 59 -7 284 -1 325 3 19 8 53 11 75 31
220 153 361 305 351 25 -1 144 -35 265 -75z m7970 -236 c-31 -68 -71 -213 -81
-285 -4 -30 -9 -66 -11 -80 -10 -56 -8 -342 2 -435 19 -168 25 -155 -80 -182
-49 -12 -99 -25 -110 -27 -11 -2 -49 -12 -85 -21 -36 -9 -73 -19 -83 -21 -10
-2 -27 -6 -37 -9 -10 -3 -27 -8 -37 -10 -10 -2 -146 -36 -303 -75 -157 -39
-292 -73 -300 -75 -23 -5 -1320 -327 -1635 -406 -154 -39 -287 -72 -295 -74
-8 -2 -180 -44 -381 -94 -201 -50 -374 -93 -385 -95 -10 -2 -93 -23 -184 -46
-91 -23 -172 -43 -180 -45 -8 -2 -33 -8 -55 -13 -22 -6 -78 -20 -125 -32 -47
-11 -92 -23 -102 -26 -14 -4 -16 5 -13 73 2 43 6 182 10 308 4 127 8 275 10
330 3 55 7 183 10 285 3 102 9 188 13 192 4 4 21 9 37 12 17 4 41 8 55 11 14
2 169 34 345 71 176 36 329 68 340 70 144 29 275 55 295 60 14 3 36 7 50 10
14 2 67 14 118 24 51 11 109 23 130 26 20 3 39 7 42 9 3 2 118 26 255 54 138
27 338 68 445 91 107 22 209 43 225 46 17 2 37 7 45 9 8 2 26 6 40 9 14 2 68
13 120 24 52 12 111 24 130 27 19 3 42 8 50 10 8 2 31 7 50 10 19 3 63 12 98
20 34 8 75 17 90 20 16 2 125 25 243 49 119 25 229 48 245 50 16 3 38 8 49 10
81 17 425 88 445 92 14 2 129 26 255 53 127 27 238 49 247 50 15 1 14 -5 -7
-54z m-2 -1583 c52 -23 96 -68 131 -132 127 -233 95 -821 -56 -1057 -58 -89
-139 -154 -208 -166 -31 -6 -223 -58 -520 -142 -508 -143 -590 -166 -607 -170
-23 -5 -439 -122 -478 -134 -16 -6 -106 -31 -200 -56 -93 -26 -231 -65 -305
-86 -74 -22 -146 -42 -160 -45 -14 -3 -50 -12 -80 -21 -30 -9 -59 -18 -65 -19
-5 -1 -57 -16 -115 -32 -58 -17 -145 -42 -195 -56 -49 -13 -130 -36 -180 -51
-49 -14 -99 -28 -110 -30 -11 -3 -69 -19 -129 -36 -60 -17 -116 -32 -125 -34
-25 -6 -204 -56 -221 -63 -48 -17 -50 -15 -51 51 0 34 -2 98 -4 142 -3 73 -6
159 -21 635 -2 85 -6 201 -8 257 l-4 103 242 79 c132 43 403 132 601 196 198
64 385 126 415 137 30 11 63 21 72 23 14 3 183 58 463 150 39 13 246 81 460
150 215 70 431 141 480 157 50 17 95 31 100 32 6 1 172 55 370 120 198 64 364
118 370 120 25 7 100 -5 138 -22z m-8133 -283 c113 -22 212 -42 220 -44 8 -2
83 -17 165 -34 83 -17 184 -38 225 -46 449 -93 745 -154 770 -159 14 -2 70
-14 125 -26 55 -11 145 -30 200 -41 55 -10 109 -21 120 -24 11 -2 151 -31 310
-64 160 -33 335 -69 390 -81 55 -11 111 -23 125 -25 14 -3 70 -14 125 -25 112
-24 429 -90 460 -96 11 -2 85 -17 165 -33 80 -17 161 -33 180 -36 19 -3 42 -8
50 -10 15 -5 282 -60 335 -69 64 -12 257 -54 260 -58 2 -2 6 -89 10 -193 7
-195 8 -239 20 -625 4 -124 8 -258 10 -297 1 -40 -1 -73 -6 -73 -7 0 -1071
265 -1770 440 -129 32 -246 61 -260 64 -13 2 -98 23 -189 46 -91 23 -172 43
-180 45 -8 2 -44 11 -80 20 -36 9 -72 18 -80 20 -8 2 -80 20 -160 40 -80 20
-152 38 -160 40 -8 2 -143 36 -300 75 -318 80 -312 78 -339 84 -11 3 -109 27
-218 55 -109 27 -209 52 -223 55 -14 2 -119 28 -233 57 l-209 53 7 60 c4 34 9
75 11 91 18 136 6 471 -21 590 -23 98 -61 209 -93 269 -2 4 4 6 14 2 11 -3
111 -24 224 -47z m-107 -1655 c347 -114 650 -213 1177 -384 239 -78 545 -178
680 -222 135 -44 342 -111 460 -150 118 -38 323 -105 455 -148 132 -44 306
-100 387 -126 130 -42 146 -50 143 -68 -3 -18 -8 -148 -20 -576 -2 -58 -6
-199 -10 -315 -4 -115 -8 -228 -8 -251 0 -40 -1 -41 -26 -32 -14 4 -91 26
-171 48 -138 39 -166 46 -305 86 -33 10 -64 19 -70 20 -13 2 -362 100 -445
124 -84 25 -676 190 -715 200 -16 4 -201 56 -410 115 -209 59 -418 118 -465
130 -73 20 -239 66 -425 120 -118 33 -415 116 -432 120 -126 27 -175 53 -240
125 -48 52 -120 207 -137 292 -2 13 -9 43 -14 68 -33 144 -36 430 -8 580 18
92 57 186 99 240 19 25 79 66 112 78 68 24 118 14 388 -74z m7929 -246 c-69
-170 -91 -320 -87 -588 1 -113 5 -221 9 -240 3 -19 8 -51 11 -72 6 -34 5 -36
-24 -43 -17 -3 -34 -7 -38 -7 -5 0 -15 -4 -24 -9 -9 -4 -27 -10 -40 -13 -13
-2 -125 -29 -248 -60 -123 -31 -233 -58 -245 -60 -11 -3 -86 -21 -166 -41 -80
-20 -152 -38 -160 -40 -8 -2 -206 -51 -440 -110 -234 -59 -432 -108 -440 -110
-8 -2 -271 -67 -585 -145 -313 -78 -576 -143 -585 -145 -8 -2 -43 -11 -77 -20
-35 -9 -71 -18 -80 -20 -10 -2 -74 -18 -143 -35 -69 -17 -168 -42 -220 -55
-131 -32 -212 -52 -300 -75 -41 -11 -191 -48 -333 -83 l-258 -64 6 196 c8 243
11 339 20 611 9 295 13 381 17 385 2 3 168 39 268 59 63 12 144 29 395 81
l270 56 73 -16 73 -17 147 48 c81 26 152 49 157 50 6 1 50 16 99 33 73 25 316
83 441 105 17 3 163 33 325 66 461 95 923 190 945 194 11 2 31 7 45 10 14 3
36 8 50 10 14 2 45 9 70 15 25 5 61 13 80 16 19 3 87 17 150 30 63 13 126 26
140 29 14 3 93 19 175 36 83 17 161 34 175 36 14 3 104 22 200 42 96 21 177
37 179 36 2 -2 -10 -36 -27 -76z"/>
</g>
</svg>
